<mxfile host="app.diagrams.net" agent="Mozilla/5.0 (Windows NT 10.0; Win64; x64) AppleWebKit/537.36 (KHTML, like Gecko) Chrome/141.0.0.0 Safari/537.36" version="28.2.7">
  <diagram name="Page-1" id="xd23shvON2OgnjN9HKNj">
    <mxGraphModel dx="2063" dy="604" grid="1" gridSize="10" guides="1" tooltips="1" connect="1" arrows="1" fold="1" page="1" pageScale="1" pageWidth="850" pageHeight="1100" math="0" shadow="0">
      <root>
        <mxCell id="0" />
        <mxCell id="1" parent="0" />
        <mxCell id="7iOogVnf-w18_ywHyBui-8" value="" style="group" parent="1" vertex="1" connectable="0">
          <mxGeometry x="-135" y="140" width="450" height="260" as="geometry" />
        </mxCell>
        <mxCell id="7iOogVnf-w18_ywHyBui-4" value="" style="verticalLabelPosition=bottom;verticalAlign=top;html=1;shape=mxgraph.basic.orthogonal_triangle;fillColor=#fad7ac;strokeColor=#b46504;gradientColor=#FF8000;gradientDirection=east;" parent="7iOogVnf-w18_ywHyBui-8" vertex="1">
          <mxGeometry width="450" height="260" as="geometry" />
        </mxCell>
        <mxCell id="7iOogVnf-w18_ywHyBui-5" value="" style="verticalLabelPosition=bottom;verticalAlign=top;html=1;shape=mxgraph.basic.orthogonal_triangle;direction=west;fillColor=#d5e8d4;strokeColor=#82b366;gradientColor=#008100;gradientDirection=east;" parent="7iOogVnf-w18_ywHyBui-8" vertex="1">
          <mxGeometry width="450" height="260" as="geometry" />
        </mxCell>
        <mxCell id="7iOogVnf-w18_ywHyBui-7" value="computational efficiency e.g. joins, aggregation, sorts" style="text;html=1;whiteSpace=wrap;strokeColor=none;fillColor=none;align=center;verticalAlign=middle;rounded=0;" parent="7iOogVnf-w18_ywHyBui-8" vertex="1">
          <mxGeometry x="60" y="140" width="120" height="60" as="geometry" />
        </mxCell>
        <mxCell id="7iOogVnf-w18_ywHyBui-9" value="storage efficiency e.g. level of redundancy,&amp;nbsp;" style="text;html=1;whiteSpace=wrap;strokeColor=none;fillColor=none;align=center;verticalAlign=middle;rounded=0;" parent="7iOogVnf-w18_ywHyBui-8" vertex="1">
          <mxGeometry x="250" y="50" width="120" height="60" as="geometry" />
        </mxCell>
        <mxCell id="7iOogVnf-w18_ywHyBui-13" value="one big/flat table" style="text;html=1;whiteSpace=wrap;strokeColor=none;fillColor=none;align=center;verticalAlign=middle;rounded=0;" parent="1" vertex="1">
          <mxGeometry x="-170" y="437" width="90" height="30" as="geometry" />
        </mxCell>
        <mxCell id="7iOogVnf-w18_ywHyBui-14" value="star" style="text;html=1;whiteSpace=wrap;strokeColor=none;fillColor=none;align=center;verticalAlign=middle;rounded=0;" parent="1" vertex="1">
          <mxGeometry x="50" y="437" width="90" height="18" as="geometry" />
        </mxCell>
        <mxCell id="7iOogVnf-w18_ywHyBui-15" value="" style="group" parent="1" vertex="1" connectable="0">
          <mxGeometry x="-140" y="420" width="470" height="15" as="geometry" />
        </mxCell>
        <mxCell id="7iOogVnf-w18_ywHyBui-6" value="" style="endArrow=classic;startArrow=classic;html=1;rounded=0;" parent="7iOogVnf-w18_ywHyBui-15" edge="1">
          <mxGeometry width="50" height="50" relative="1" as="geometry">
            <mxPoint y="7" as="sourcePoint" />
            <mxPoint x="470" y="7" as="targetPoint" />
          </mxGeometry>
        </mxCell>
        <mxCell id="7iOogVnf-w18_ywHyBui-10" value="" style="endArrow=none;html=1;rounded=0;" parent="7iOogVnf-w18_ywHyBui-15" edge="1">
          <mxGeometry width="50" height="50" relative="1" as="geometry">
            <mxPoint x="20" as="sourcePoint" />
            <mxPoint x="20" as="targetPoint" />
            <Array as="points">
              <mxPoint x="20" y="15" />
            </Array>
          </mxGeometry>
        </mxCell>
        <mxCell id="7iOogVnf-w18_ywHyBui-11" value="" style="endArrow=none;html=1;rounded=0;" parent="7iOogVnf-w18_ywHyBui-15" edge="1">
          <mxGeometry width="50" height="50" relative="1" as="geometry">
            <mxPoint x="233" as="sourcePoint" />
            <mxPoint x="233" as="targetPoint" />
            <Array as="points">
              <mxPoint x="233" y="15" />
            </Array>
          </mxGeometry>
        </mxCell>
        <mxCell id="7iOogVnf-w18_ywHyBui-12" value="" style="endArrow=none;html=1;rounded=0;" parent="7iOogVnf-w18_ywHyBui-15" edge="1">
          <mxGeometry width="50" height="50" relative="1" as="geometry">
            <mxPoint x="449.53" as="sourcePoint" />
            <mxPoint x="449.53" as="targetPoint" />
            <Array as="points">
              <mxPoint x="449.53" y="15" />
            </Array>
          </mxGeometry>
        </mxCell>
        <mxCell id="7iOogVnf-w18_ywHyBui-16" value="snowflake" style="text;html=1;whiteSpace=wrap;strokeColor=none;fillColor=none;align=center;verticalAlign=middle;rounded=0;" parent="1" vertex="1">
          <mxGeometry x="260" y="437" width="90" height="20" as="geometry" />
        </mxCell>
        <mxCell id="7iOogVnf-w18_ywHyBui-17" value="" style="rounded=0;whiteSpace=wrap;html=1;fillColor=#d5e8d4;strokeColor=#82b366;gradientColor=#008100;" parent="1" vertex="1">
          <mxGeometry x="335" y="140" width="20" height="260" as="geometry" />
        </mxCell>
        <mxCell id="7iOogVnf-w18_ywHyBui-18" value="" style="rounded=0;whiteSpace=wrap;html=1;fillColor=#ffe6cc;strokeColor=#d79b00;gradientColor=#FF8000;" parent="1" vertex="1">
          <mxGeometry x="-175" y="140" width="20" height="260" as="geometry" />
        </mxCell>
        <mxCell id="7iOogVnf-w18_ywHyBui-19" value="slower and more complex queries" style="text;html=1;whiteSpace=wrap;strokeColor=none;fillColor=none;align=center;verticalAlign=middle;rounded=0;" parent="1" vertex="1">
          <mxGeometry x="-380" y="380" width="210" height="30" as="geometry" />
        </mxCell>
        <mxCell id="7iOogVnf-w18_ywHyBui-21" value="faster and simpler queries" style="text;html=1;whiteSpace=wrap;strokeColor=none;fillColor=none;align=center;verticalAlign=middle;rounded=0;" parent="1" vertex="1">
          <mxGeometry x="-340" y="130" width="165" height="30" as="geometry" />
        </mxCell>
        <mxCell id="7iOogVnf-w18_ywHyBui-22" value="takes larger storage capacity" style="text;html=1;whiteSpace=wrap;strokeColor=none;fillColor=none;align=center;verticalAlign=middle;rounded=0;" parent="1" vertex="1">
          <mxGeometry x="355" y="380" width="175" height="30" as="geometry" />
        </mxCell>
        <mxCell id="7iOogVnf-w18_ywHyBui-23" value="takes less storage capacity" style="text;html=1;whiteSpace=wrap;strokeColor=none;fillColor=none;align=center;verticalAlign=middle;rounded=0;" parent="1" vertex="1">
          <mxGeometry x="355" y="130" width="175" height="30" as="geometry" />
        </mxCell>
        <mxCell id="7iOogVnf-w18_ywHyBui-24" value="" style="group" parent="1" vertex="1" connectable="0">
          <mxGeometry x="-145" y="110" width="470" height="15" as="geometry" />
        </mxCell>
        <mxCell id="7iOogVnf-w18_ywHyBui-25" value="" style="endArrow=classic;startArrow=classic;html=1;rounded=0;" parent="7iOogVnf-w18_ywHyBui-24" edge="1">
          <mxGeometry width="50" height="50" relative="1" as="geometry">
            <mxPoint y="7" as="sourcePoint" />
            <mxPoint x="470" y="7" as="targetPoint" />
          </mxGeometry>
        </mxCell>
        <mxCell id="7iOogVnf-w18_ywHyBui-26" value="" style="endArrow=none;html=1;rounded=0;" parent="7iOogVnf-w18_ywHyBui-24" edge="1">
          <mxGeometry width="50" height="50" relative="1" as="geometry">
            <mxPoint x="20" as="sourcePoint" />
            <mxPoint x="20" as="targetPoint" />
            <Array as="points">
              <mxPoint x="20" y="15" />
            </Array>
          </mxGeometry>
        </mxCell>
        <mxCell id="7iOogVnf-w18_ywHyBui-28" value="" style="endArrow=none;html=1;rounded=0;" parent="7iOogVnf-w18_ywHyBui-24" edge="1">
          <mxGeometry width="50" height="50" relative="1" as="geometry">
            <mxPoint x="449.53" as="sourcePoint" />
            <mxPoint x="449.53" as="targetPoint" />
            <Array as="points">
              <mxPoint x="449.53" y="15" />
            </Array>
          </mxGeometry>
        </mxCell>
        <mxCell id="7iOogVnf-w18_ywHyBui-29" value="denormalized" style="text;html=1;whiteSpace=wrap;strokeColor=none;fillColor=none;align=center;verticalAlign=middle;rounded=0;" parent="1" vertex="1">
          <mxGeometry x="-160" y="80" width="70" height="30" as="geometry" />
        </mxCell>
        <mxCell id="7iOogVnf-w18_ywHyBui-30" value="normalized" style="text;html=1;whiteSpace=wrap;strokeColor=none;fillColor=none;align=center;verticalAlign=middle;rounded=0;" parent="1" vertex="1">
          <mxGeometry x="270" y="80" width="70" height="30" as="geometry" />
        </mxCell>
        <mxCell id="7iOogVnf-w18_ywHyBui-102" value="" style="group" parent="1" vertex="1" connectable="0">
          <mxGeometry x="-370" y="590" width="730" height="350" as="geometry" />
        </mxCell>
        <mxCell id="7iOogVnf-w18_ywHyBui-83" value="" style="group" parent="7iOogVnf-w18_ywHyBui-102" vertex="1" connectable="0">
          <mxGeometry x="182.5" width="547.5" height="87.5" as="geometry" />
        </mxCell>
        <mxCell id="7iOogVnf-w18_ywHyBui-80" value="x &amp;lt; 1m" style="rounded=0;whiteSpace=wrap;html=1;fillColor=none;" parent="7iOogVnf-w18_ywHyBui-83" vertex="1">
          <mxGeometry width="182.5" height="87.5" as="geometry" />
        </mxCell>
        <mxCell id="7iOogVnf-w18_ywHyBui-81" value="1m &amp;lt;= x &amp;lt;= 100m" style="rounded=0;whiteSpace=wrap;html=1;fillColor=none;" parent="7iOogVnf-w18_ywHyBui-83" vertex="1">
          <mxGeometry x="182.5" width="182.5" height="87.5" as="geometry" />
        </mxCell>
        <mxCell id="7iOogVnf-w18_ywHyBui-82" value="x &amp;gt; 100m" style="rounded=0;whiteSpace=wrap;html=1;fillColor=none;" parent="7iOogVnf-w18_ywHyBui-83" vertex="1">
          <mxGeometry x="365" width="182.5" height="87.5" as="geometry" />
        </mxCell>
        <mxCell id="7iOogVnf-w18_ywHyBui-90" value="flat/one big table" style="rounded=0;whiteSpace=wrap;html=1;fillColor=none;" parent="7iOogVnf-w18_ywHyBui-102" vertex="1">
          <mxGeometry y="87.5" width="182.5" height="87.5" as="geometry" />
        </mxCell>
        <mxCell id="7iOogVnf-w18_ywHyBui-91" value="star schema" style="rounded=0;whiteSpace=wrap;html=1;fillColor=none;" parent="7iOogVnf-w18_ywHyBui-102" vertex="1">
          <mxGeometry y="175" width="182.5" height="87.5" as="geometry" />
        </mxCell>
        <mxCell id="7iOogVnf-w18_ywHyBui-92" value="snowflake" style="rounded=0;whiteSpace=wrap;html=1;fillColor=none;" parent="7iOogVnf-w18_ywHyBui-102" vertex="1">
          <mxGeometry y="262.5" width="182.5" height="87.5" as="geometry" />
        </mxCell>
        <mxCell id="7iOogVnf-w18_ywHyBui-93" value="optimal storage efficiency&lt;div&gt;maximum computational efficiency&lt;/div&gt;" style="rounded=0;whiteSpace=wrap;html=1;fillColor=none;" parent="7iOogVnf-w18_ywHyBui-102" vertex="1">
          <mxGeometry x="182.5" y="87.5" width="182.5" height="87.5" as="geometry" />
        </mxCell>
        <mxCell id="7iOogVnf-w18_ywHyBui-94" value="sub-optimal storage efficiency&lt;div&gt;maximum computational efficiency&amp;nbsp;&lt;/div&gt;" style="rounded=0;whiteSpace=wrap;html=1;fillColor=none;" parent="7iOogVnf-w18_ywHyBui-102" vertex="1">
          <mxGeometry x="365" y="87.5" width="182.5" height="87.5" as="geometry" />
        </mxCell>
        <mxCell id="7iOogVnf-w18_ywHyBui-95" value="unoptimal storage efficiency&lt;div&gt;maximum computational efficiency&lt;/div&gt;" style="rounded=0;whiteSpace=wrap;html=1;fillColor=none;" parent="7iOogVnf-w18_ywHyBui-102" vertex="1">
          <mxGeometry x="547.5" y="87.5" width="182.5" height="87.5" as="geometry" />
        </mxCell>
        <mxCell id="7iOogVnf-w18_ywHyBui-96" value="optimal storage efficiency&lt;div&gt;optimal computational efficiency&lt;/div&gt;" style="rounded=0;whiteSpace=wrap;html=1;fillColor=none;" parent="7iOogVnf-w18_ywHyBui-102" vertex="1">
          <mxGeometry x="182.5" y="175" width="182.5" height="87.5" as="geometry" />
        </mxCell>
        <mxCell id="7iOogVnf-w18_ywHyBui-97" value="optimal storage efficiency&lt;div&gt;optimal computational efficiency&lt;/div&gt;" style="rounded=0;whiteSpace=wrap;html=1;fillColor=none;" parent="7iOogVnf-w18_ywHyBui-102" vertex="1">
          <mxGeometry x="365" y="175" width="182.5" height="87.5" as="geometry" />
        </mxCell>
        <mxCell id="7iOogVnf-w18_ywHyBui-98" value="optimal storage efficiency&lt;div&gt;optimal computational efficiency&lt;/div&gt;" style="rounded=0;whiteSpace=wrap;html=1;fillColor=none;" parent="7iOogVnf-w18_ywHyBui-102" vertex="1">
          <mxGeometry x="547.5" y="175" width="182.5" height="87.5" as="geometry" />
        </mxCell>
        <mxCell id="7iOogVnf-w18_ywHyBui-99" value="maximum storage efficiency&lt;div&gt;optimal computational efficiency&lt;/div&gt;" style="rounded=0;whiteSpace=wrap;html=1;fillColor=none;" parent="7iOogVnf-w18_ywHyBui-102" vertex="1">
          <mxGeometry x="182.5" y="262.5" width="182.5" height="87.5" as="geometry" />
        </mxCell>
        <mxCell id="7iOogVnf-w18_ywHyBui-100" value="maximum storage efficiency&lt;div&gt;sub-optimal computational efficiency&lt;/div&gt;" style="rounded=0;whiteSpace=wrap;html=1;fillColor=none;" parent="7iOogVnf-w18_ywHyBui-102" vertex="1">
          <mxGeometry x="365" y="262.5" width="182.5" height="87.5" as="geometry" />
        </mxCell>
        <mxCell id="7iOogVnf-w18_ywHyBui-101" value="maximum storage efficiency&lt;div&gt;unoptimal computational efficiency&lt;/div&gt;" style="rounded=0;whiteSpace=wrap;html=1;fillColor=none;" parent="7iOogVnf-w18_ywHyBui-102" vertex="1">
          <mxGeometry x="547.5" y="262.5" width="182.5" height="87.5" as="geometry" />
        </mxCell>
        <mxCell id="7iOogVnf-w18_ywHyBui-103" value="This is a table which can better allow business in understanding how to choose between optimizing for storage, performance, or both in terms of analytics." style="text;html=1;whiteSpace=wrap;strokeColor=none;fillColor=none;align=left;verticalAlign=middle;rounded=0;" parent="1" vertex="1">
          <mxGeometry x="-340" y="485" width="630" height="85" as="geometry" />
        </mxCell>
      </root>
    </mxGraphModel>
  </diagram>
</mxfile>
